<?xml version="1.0" standalone="no"?>
<!DOCTYPE svg PUBLIC "-//W3C//DTD SVG 20010904//EN"
 "http://www.w3.org/TR/2001/REC-SVG-20010904/DTD/svg10.dtd">
<svg version="1.0" xmlns="http://www.w3.org/2000/svg"
 width="500.000000pt" height="500.000000pt" viewBox="0 0 500.000000 500.000000"
 preserveAspectRatio="xMidYMid meet">

<g transform="translate(0.000000,500.000000) scale(0.100000,-0.100000)"
fill="#000000" stroke="none">
<path d="M1650 2970 c-24 -24 -24 -30 -7 -55 10 -13 21 -16 40 -11 22 5 27 12
27 36 0 41 -32 58 -60 30z"/>
<path d="M1453 2973 c-25 -3 -33 -9 -33 -24 0 -10 7 -19 15 -19 13 0 15 -23
15 -149 0 -120 -3 -151 -15 -161 -34 -28 -17 -40 55 -40 63 0 70 2 70 20 0 13
-7 20 -19 20 -18 0 -19 7 -15 138 6 166 0 223 -24 220 -9 0 -32 -3 -49 -5z"/>
<path d="M2758 2973 c-29 -3 -38 -9 -38 -22 0 -11 9 -21 21 -24 15 -4 20 -11
15 -22 -3 -9 -6 -25 -6 -36 0 -16 -7 -19 -42 -19 -86 -1 -128 -50 -128 -147 0
-51 4 -66 26 -92 32 -38 80 -49 123 -27 17 9 31 12 31 6 0 -5 22 -10 50 -10
43 0 50 3 50 20 0 11 -7 20 -15 20 -13 0 -15 27 -15 180 0 165 -1 180 -17 178
-10 -1 -35 -3 -55 -5z m-24 -159 c13 -5 16 -23 16 -95 0 -87 -1 -89 -25 -95
-35 -9 -62 17 -70 67 -11 65 10 109 62 128 1 1 8 -2 17 -5z"/>
<path d="M1090 2930 c0 -13 7 -20 20 -20 19 0 20 -7 20 -140 0 -129 -1 -140
-20 -150 -11 -6 -20 -17 -20 -25 0 -13 24 -15 140 -15 l140 0 0 60 c0 47 -3
60 -15 60 -8 0 -15 -9 -15 -20 0 -35 -35 -60 -85 -60 l-45 0 0 70 c0 43 4 70
11 70 20 0 49 -21 49 -35 0 -8 9 -15 20 -15 18 0 20 7 20 65 0 58 -2 65 -20
65 -15 0 -20 -7 -20 -25 0 -21 -5 -25 -30 -25 l-31 0 3 63 c3 56 5 62 27 65
42 6 72 -7 83 -38 17 -49 38 -38 38 20 l0 50 -135 0 c-128 0 -135 -1 -135 -20z"/>
<path d="M1930 2931 c0 -14 6 -21 20 -21 19 0 20 -7 20 -135 0 -123 -2 -137
-20 -152 -39 -34 -25 -43 60 -43 73 0 80 2 80 20 0 15 -7 20 -25 20 -23 0 -25
4 -25 44 0 46 11 56 68 56 102 0 159 118 93 192 l-29 33 -121 3 c-117 4 -121
3 -121 -17z m183 -22 c30 -16 37 -28 37 -70 0 -49 -26 -80 -70 -82 l-35 -2 -3
62 c-4 93 17 120 71 92z"/>
<path d="M3772 2879 c-13 -16 -30 -29 -38 -29 -8 0 -14 -10 -14 -25 0 -18 5
-25 20 -25 19 0 20 -7 20 -90 0 -83 2 -93 25 -115 35 -36 87 -31 137 13 13 11
15 19 7 28 -8 10 -16 9 -40 -4 -29 -16 -31 -16 -44 2 -10 13 -15 45 -15 92 l0
72 35 6 c26 5 35 12 35 26 0 16 -7 20 -35 20 -32 0 -35 2 -35 30 0 40 -27 39
-58 -1z"/>
<path d="M1638 2843 c-30 -3 -38 -9 -38 -24 0 -10 7 -19 15 -19 12 0 15 -16
15 -84 0 -62 -4 -87 -15 -96 -34 -28 -17 -40 55 -40 63 0 70 2 70 20 0 12 -7
20 -17 20 -16 0 -18 11 -15 115 3 106 2 115 -15 113 -10 -1 -35 -3 -55 -5z"/>
<path d="M2964 2831 c-63 -38 -83 -139 -41 -202 43 -65 134 -75 197 -22 24 20
28 28 19 39 -9 11 -15 10 -36 -6 -62 -49 -123 -7 -123 84 0 39 5 58 21 75 29
31 62 24 69 -13 6 -37 32 -55 54 -37 23 19 20 48 -9 76 -31 32 -105 34 -151 6z"/>
<path d="M3235 2840 c-33 -13 -48 -37 -41 -65 10 -40 66 -27 66 16 0 9 7 20
16 23 21 8 20 8 38 -10 19 -18 21 -64 4 -64 -7 0 -30 -5 -52 -11 -81 -23 -113
-96 -60 -138 32 -25 55 -26 94 -6 17 9 30 11 30 5 0 -5 22 -10 50 -10 43 0 50
3 50 20 0 11 -7 20 -15 20 -12 0 -15 17 -15 90 0 83 -2 93 -25 115 -19 20 -34
25 -72 24 -26 0 -57 -4 -68 -9z m95 -170 c0 -37 -39 -62 -65 -40 -8 7 -15 16
-15 21 0 17 40 49 60 49 16 0 20 -7 20 -30z"/>
<path d="M3503 2835 c-30 -21 -39 -69 -18 -101 9 -14 45 -38 81 -54 68 -31 82
-55 39 -66 -33 -8 -83 13 -91 38 -5 18 -36 23 -35 6 1 -5 1 -24 1 -43 0 -32 2
-34 33 -36 118 -5 126 -4 151 20 53 50 17 122 -72 149 -50 15 -69 36 -52 57
19 23 49 18 82 -15 39 -40 58 -39 58 3 0 17 -4 37 -8 43 -12 17 -144 17 -169
-1z"/>
<path d="M3066 2421 c-21 -23 -18 -49 7 -65 39 -25 79 44 41 71 -23 17 -28 17
-48 -6z"/>
<path d="M2028 2423 c-29 -3 -38 -9 -38 -22 0 -11 9 -21 21 -24 15 -4 20 -11
15 -22 -3 -9 -6 -25 -6 -36 0 -16 -7 -19 -42 -19 -86 -1 -128 -50 -128 -147 0
-51 4 -66 26 -92 32 -38 80 -49 123 -27 17 9 31 12 31 6 0 -5 22 -10 50 -10
43 0 50 3 50 20 0 11 -7 20 -15 20 -13 0 -15 27 -15 180 0 165 -1 180 -17 178
-10 -1 -35 -3 -55 -5z m-24 -159 c13 -5 16 -23 16 -95 0 -87 -1 -89 -25 -95
-35 -9 -62 17 -70 67 -11 65 10 109 62 128 1 1 8 -2 17 -5z"/>
<path d="M940 2380 c0 -13 7 -20 20 -20 19 0 20 -7 20 -129 0 -137 -4 -161
-26 -161 -8 0 -14 -9 -14 -20 0 -18 7 -20 80 -20 73 0 80 2 80 20 0 15 -7 20
-25 20 -23 0 -25 4 -25 44 l0 45 48 7 c95 13 142 54 142 123 0 85 -45 111
-194 111 -99 0 -106 -1 -106 -20z m183 -21 c30 -16 37 -28 37 -70 0 -49 -26
-80 -70 -82 l-35 -2 -3 62 c-4 93 17 120 71 92z"/>
<path d="M2832 2330 c-13 -16 -29 -30 -37 -30 -9 0 -15 -10 -15 -25 0 -18 5
-25 20 -25 18 0 19 -7 18 -91 -2 -88 -1 -93 26 -115 15 -13 39 -24 54 -24 33
0 92 35 92 54 0 23 -19 29 -36 12 -41 -41 -64 -10 -64 85 l0 77 36 6 c46 9 44
40 -4 44 -28 3 -32 7 -32 33 0 39 -29 39 -58 -1z"/>
<path d="M1318 2293 c-30 -3 -38 -9 -38 -24 0 -10 7 -19 15 -19 12 0 15 -17
15 -89 0 -70 -3 -90 -15 -95 -8 -3 -15 -12 -15 -21 0 -12 14 -15 70 -15 63 0
70 2 70 20 0 11 -7 20 -15 20 -12 0 -15 15 -15 73 0 60 4 77 19 91 18 17 21
17 45 1 22 -14 29 -15 42 -5 8 8 14 25 12 39 -4 36 -60 42 -94 10 l-24 -22 0
21 c0 15 -6 21 -17 20 -10 -1 -35 -3 -55 -5z"/>
<path d="M1592 2275 c-41 -34 -55 -75 -50 -137 17 -169 258 -147 258 24 0 91
-46 138 -134 138 -33 0 -52 -6 -74 -25z m114 -31 c21 -31 24 -129 6 -161 -17
-31 -57 -30 -78 1 -9 15 -16 47 -16 80 -1 93 50 139 88 80z"/>
<path d="M2200 2291 c-40 -7 -57 -41 -21 -41 20 0 21 -6 21 -82 0 -46 6 -94
13 -108 18 -36 69 -48 115 -26 24 12 38 14 40 7 2 -6 26 -11 53 -11 42 0 49 3
49 20 0 12 -7 20 -17 20 -16 0 -18 11 -15 116 l3 117 -32 -7 c-17 -3 -42 -6
-55 -6 -17 0 -24 -6 -24 -20 0 -11 7 -20 15 -20 13 0 15 -14 13 -82 -3 -81 -4
-83 -31 -93 -46 -15 -57 10 -57 127 0 108 5 102 -70 89z"/>
<path d="M2556 2270 c-40 -35 -60 -102 -45 -153 12 -43 56 -86 97 -93 65 -12
153 33 138 71 -5 15 -9 14 -32 -4 -36 -29 -89 -28 -108 2 -36 55 -32 136 9
163 30 20 68 10 60 -15 -8 -27 18 -55 43 -47 30 10 30 58 0 86 -16 15 -35 20
-75 20 -44 0 -58 -5 -87 -30z"/>
<path d="M3050 2291 c-40 -7 -57 -41 -21 -41 20 0 21 -6 21 -84 0 -62 -4 -87
-15 -96 -34 -28 -17 -40 55 -40 63 0 70 2 70 20 0 13 -7 20 -20 20 -19 0 -20
7 -20 115 0 127 5 119 -70 106z"/>
<path d="M3254 2281 c-60 -37 -80 -143 -38 -207 16 -24 80 -54 117 -54 65 0
127 70 127 143 0 110 -113 175 -206 118z m93 -19 c35 -22 45 -145 15 -182 -26
-32 -66 -21 -81 21 -32 93 10 197 66 161z"/>
<path d="M3540 2291 c-40 -7 -57 -41 -21 -41 20 0 21 -6 21 -84 0 -62 -4 -87
-15 -96 -34 -28 -17 -40 55 -40 63 0 70 2 70 20 0 13 -7 20 -20 20 -18 0 -20
7 -20 83 0 80 1 84 25 95 51 23 75 -10 75 -104 0 -42 -5 -58 -20 -71 -38 -32
-25 -43 50 -43 63 0 70 2 70 20 0 11 -6 20 -14 20 -11 0 -15 22 -18 94 -2 75
-7 98 -22 115 -22 24 -83 29 -119 10 -16 -9 -22 -9 -25 0 -4 12 -16 12 -72 2z"/>
<path d="M3892 2293 c-16 -6 -42 -56 -42 -81 0 -26 36 -56 103 -86 61 -27 74
-51 32 -62 -32 -8 -83 13 -90 37 -4 10 -13 19 -21 19 -10 0 -14 -13 -14 -45 0
-43 1 -44 33 -46 118 -5 126 -4 151 20 53 50 17 122 -72 149 -50 15 -69 36
-52 57 19 23 49 18 82 -15 42 -43 61 -40 54 8 -3 20 -5 40 -6 43 0 7 -141 9
-158 2z"/>
<path d="M3325 1270 c-4 -6 -3 -16 3 -22 6 -6 12 -6 17 2 4 6 3 16 -3 22 -6 6
-12 6 -17 -2z"/>
<path d="M860 1260 c0 -5 9 -10 21 -10 11 0 17 5 14 10 -3 6 -13 10 -21 10 -8
0 -14 -4 -14 -10z"/>
<path d="M2112 1259 c2 -6 8 -10 13 -10 5 0 11 4 13 10 2 6 -4 11 -13 11 -9 0
-15 -5 -13 -11z"/>
<path d="M3261 1220 c-14 -66 -14 -83 2 -78 13 5 24 44 26 96 2 49 -16 38 -28
-18z"/>
<path d="M3467 1263 c-2 -5 -7 -26 -11 -48 -4 -22 -9 -48 -12 -57 -3 -11 0
-18 9 -18 8 0 18 15 23 33 6 17 16 32 24 32 11 0 14 -9 12 -32 -3 -46 25 -45
34 1 7 43 0 56 -32 56 -17 0 -24 5 -24 20 0 20 -15 27 -23 13z"/>
<path d="M3760 1251 c0 -16 -8 -20 -37 -23 -30 -2 -39 -8 -47 -30 -13 -37 6
-58 54 -58 36 0 38 1 44 43 4 23 9 52 13 65 4 16 1 22 -11 22 -9 0 -16 -8 -16
-19z m-14 -52 c10 -17 -23 -46 -37 -32 -7 7 -9 19 -6 27 7 18 33 21 43 5z"/>
<path d="M4170 1251 c0 -16 -8 -20 -37 -23 -30 -2 -39 -8 -47 -30 -13 -37 6
-58 54 -58 36 0 38 1 44 43 4 23 9 52 13 65 4 16 1 22 -11 22 -9 0 -16 -8 -16
-19z m-14 -52 c10 -17 -23 -46 -37 -32 -7 7 -9 19 -6 27 7 18 33 21 43 5z"/>
<path d="M430 1250 c0 -5 7 -10 16 -10 14 0 16 -8 11 -50 -5 -38 -3 -50 7 -50
9 0 17 19 22 48 7 38 13 48 32 50 44 7 21 22 -33 22 -30 0 -55 -4 -55 -10z"/>
<path d="M1205 1238 c4 -13 9 -40 12 -60 5 -39 33 -55 33 -19 0 10 14 36 31
57 19 24 26 40 19 42 -7 3 -22 -8 -34 -23 l-22 -27 -12 26 c-15 33 -37 35 -27
4z"/>
<path d="M1675 1223 c-3 -21 -9 -48 -12 -60 -4 -17 -1 -23 11 -23 9 0 16 7 16
15 0 9 9 15 23 15 30 0 67 27 67 49 0 27 -21 41 -61 41 -35 0 -37 -2 -44 -37z
m70 -3 c0 -8 -10 -16 -22 -18 -22 -3 -32 16 -16 32 12 11 38 2 38 -14z"/>
<path d="M2445 1248 c-2 -7 -8 -34 -13 -60 -8 -38 -7 -48 4 -48 18 0 22 9 30
68 5 37 3 52 -5 52 -6 0 -13 -6 -16 -12z"/>
<path d="M3027 1246 c-3 -7 -9 -34 -12 -60 -6 -39 -5 -46 9 -46 9 0 16 7 16
15 0 8 9 15 19 15 49 0 80 35 61 70 -13 24 -84 29 -93 6z m62 -15 c18 -11 5
-31 -20 -31 -18 0 -26 20 -12 33 8 9 15 9 32 -2z"/>
<path d="M3855 1214 c-3 -26 -9 -53 -12 -60 -3 -8 1 -14 10 -14 8 0 17 7 21
15 3 8 16 15 30 15 45 0 73 49 44 78 -7 7 -29 12 -49 12 -36 0 -37 -1 -44 -46z
m73 3 c3 -12 -3 -17 -21 -17 -20 0 -24 4 -20 20 7 25 36 23 41 -3z"/>
<path d="M2614 1236 c-7 -7 -9 -28 -5 -52 5 -30 11 -40 29 -42 12 -2 22 1 22
7 0 6 -4 11 -10 11 -5 0 -10 11 -10 25 0 16 6 25 15 25 19 0 19 7 1 26 -18 17
-27 17 -42 0z"/>
<path d="M4533 1238 c-5 -7 -9 -31 -9 -53 1 -34 5 -41 24 -43 12 -2 22 1 22 7
0 6 -4 11 -10 11 -17 0 -11 38 7 48 15 9 15 11 1 26 -20 19 -23 20 -35 4z"/>
<path d="M544 1216 c-3 -8 -4 -27 -2 -43 3 -25 7 -28 46 -31 31 -2 42 1 42 11
0 8 3 29 6 46 9 43 -18 42 -31 -1 -14 -46 -35 -48 -35 -4 0 36 -16 49 -26 22z"/>
<path d="M660 1216 c0 -7 -3 -28 -6 -45 -5 -24 -3 -31 10 -31 10 0 16 9 16 25
0 14 9 30 20 37 28 18 25 28 -10 28 -19 0 -30 -5 -30 -14z"/>
<path d="M737 1213 c-16 -59 -17 -73 -4 -73 8 0 18 15 23 33 6 17 16 32 24 32
11 0 14 -9 12 -32 -3 -46 24 -44 32 2 9 47 2 55 -44 55 -28 0 -40 -5 -43 -17z"/>
<path d="M857 1213 c-16 -59 -17 -73 -3 -73 14 0 26 29 26 68 0 26 -17 30 -23
5z"/>
<path d="M906 1199 c-9 -47 -7 -61 7 -57 6 3 14 18 17 34 3 18 12 30 24 32 16
3 18 -1 14 -32 -5 -42 18 -51 28 -12 11 47 2 61 -42 64 -39 3 -42 1 -48 -29z"/>
<path d="M1032 1218 c-28 -28 -1 -88 33 -74 8 3 15 1 15 -4 0 -6 -16 -10 -35
-10 -40 0 -47 -17 -10 -26 35 -9 72 18 80 58 4 18 9 40 11 49 4 13 -4 17 -39
17 -24 1 -49 -4 -55 -10z m56 -25 c-5 -26 -38 -29 -38 -4 0 15 6 21 21 21 14
0 19 -5 17 -17z"/>
<path d="M1315 1206 c-23 -34 -5 -66 35 -66 39 0 67 39 50 69 -16 30 -65 28
-85 -3z m63 -19 c4 -20 -25 -34 -40 -19 -15 15 -1 44 19 40 10 -2 19 -11 21
-21z"/>
<path d="M1424 1196 c-8 -46 0 -56 45 -56 41 0 51 13 51 68 0 33 -18 27 -28
-10 -5 -20 -16 -34 -27 -37 -15 -3 -17 2 -12 33 8 49 -19 50 -29 2z"/>
<path d="M1546 1208 c-3 -13 -6 -33 -6 -46 0 -30 24 -24 28 7 2 12 12 27 23
34 27 17 24 27 -10 27 -21 0 -30 -6 -35 -22z"/>
<path d="M1800 1215 c-6 -7 -10 -26 -8 -42 3 -25 8 -28 42 -31 44 -4 56 7 56
54 0 29 -2 31 -39 32 -23 1 -44 -4 -51 -13z m58 -28 c4 -21 -27 -35 -38 -17
-12 19 0 42 19 38 9 -2 17 -11 19 -21z"/>
<path d="M1917 1223 c-14 -14 -6 -33 21 -47 l27 -15 -33 -1 c-20 0 -31 -4 -27
-10 8 -13 58 -13 72 1 8 8 13 8 17 0 10 -15 61 -14 74 2 13 15 5 30 -23 42
-18 8 -18 9 8 13 41 5 32 24 -10 20 -48 -4 -56 -30 -16 -52 l28 -15 -32 -1
c-18 0 -36 6 -40 13 -4 8 -17 17 -28 22 -18 8 -18 9 8 13 15 2 27 8 27 13 0
10 -63 13 -73 2z"/>
<path d="M2100 1216 c0 -7 -3 -28 -6 -45 -5 -24 -3 -31 10 -31 9 0 16 6 16 14
0 7 3 28 6 45 5 24 3 31 -10 31 -9 0 -16 -6 -16 -14z"/>
<path d="M2156 1215 c-32 -33 -13 -75 35 -75 34 0 51 21 47 57 -2 23 -8 29
-34 31 -19 2 -38 -3 -48 -13z m60 -16 c10 -17 -23 -46 -37 -32 -7 7 -9 19 -6
27 7 18 33 21 43 5z"/>
<path d="M2267 1213 c-16 -59 -17 -73 -4 -73 8 0 18 15 23 33 6 17 16 32 24
32 11 0 14 -9 12 -32 -3 -46 25 -45 34 1 8 46 0 56 -46 56 -28 0 -40 -5 -43
-17z"/>
<path d="M2497 1223 c-2 -5 -7 -25 -11 -45 -9 -49 15 -53 29 -5 6 17 17 32 25
32 11 0 14 -9 12 -32 -2 -24 1 -33 11 -33 15 0 29 54 20 78 -5 13 -79 17 -86
5z"/>
<path d="M2691 1216 c-18 -22 -10 -70 12 -74 54 -10 97 37 67 73 -16 19 -64
19 -79 1z m54 -31 c0 -11 -8 -21 -17 -23 -14 -3 -18 3 -18 23 0 20 4 26 18 23
9 -2 17 -12 17 -23z"/>
<path d="M2852 1218 c-13 -13 -15 -38 -6 -62 4 -11 19 -16 44 -16 44 0 45 1
54 51 l6 36 -43 1 c-24 1 -49 -4 -55 -10z m56 -30 c-4 -29 -38 -38 -38 -10 0
22 8 32 27 32 9 0 13 -8 11 -22z"/>
<path d="M3145 1206 c-23 -34 -5 -66 35 -66 39 0 67 39 50 69 -16 30 -65 28
-85 -3z m63 -19 c4 -20 -25 -34 -40 -19 -15 15 -1 44 19 40 10 -2 19 -11 21
-21z"/>
<path d="M3310 1216 c0 -7 -3 -28 -6 -45 -5 -24 -3 -31 10 -31 9 0 16 6 16 14
0 7 3 28 6 45 5 24 3 31 -10 31 -9 0 -16 -6 -16 -14z"/>
<path d="M3367 1223 c-14 -14 -6 -40 16 -51 22 -10 22 -11 -5 -11 -16 -1 -28
-6 -28 -12 0 -6 16 -9 37 -7 48 4 56 30 16 52 l-28 15 28 1 c15 0 27 5 27 10
0 11 -53 14 -63 3z"/>
<path d="M3568 1204 c-16 -35 0 -59 41 -59 17 0 30 4 29 10 -2 5 -10 8 -20 7
-9 -2 -19 2 -23 8 -4 6 7 10 29 10 23 0 36 5 36 13 0 43 -74 52 -92 11z m62
-4 c0 -5 -4 -10 -9 -10 -6 0 -13 5 -16 10 -3 6 1 10 9 10 9 0 16 -4 16 -10z"/>
<path d="M3981 1216 c-7 -8 -11 -27 -9 -43 2 -22 9 -29 31 -31 49 -6 86 45 55
76 -17 17 -63 15 -77 -2z m57 -29 c4 -21 -27 -35 -38 -17 -12 19 0 42 19 38 9
-2 17 -11 19 -21z"/>
<path d="M4216 1215 c-34 -35 -10 -79 41 -73 33 4 33 23 0 23 -15 0 -22 6 -22
20 0 15 7 20 25 20 37 0 40 20 4 23 -19 2 -38 -3 -48 -13z"/>
<path d="M4315 1206 c-25 -37 -5 -66 44 -66 35 0 39 3 45 31 11 55 9 59 -34
59 -31 0 -43 -5 -55 -24z m63 -19 c4 -20 -25 -34 -40 -19 -15 15 -1 44 19 40
10 -2 19 -11 21 -21z"/>
<path d="M4437 1223 c-14 -14 -6 -40 16 -51 22 -10 22 -11 -5 -11 -16 -1 -28
-6 -28 -12 0 -6 16 -9 37 -7 48 4 56 30 16 52 l-28 15 28 1 c15 0 27 5 27 10
0 11 -53 14 -63 3z"/>
</g>
</svg>
